<?xml version="1.0" encoding="UTF-8"?> <svg xmlns="http://www.w3.org/2000/svg" width="180" height="80" viewBox="0 0 180 80" fill="none"> <path fill-rule="evenodd" clip-rule="evenodd" d="M102.127 5.65766C104.131 3.46108 107.149 1.90387 110.698 1.51108C116.237 0.898037 121.423 3.30365 123.852 7.20124C125.756 5.69257 128.232 4.65279 131.04 4.342C137.035 3.67845 142.617 6.55146 144.736 11.0251C145.972 10.5147 147.329 10.1619 148.774 10.002C155.83 9.22108 162.312 13.3386 163.253 19.1987C163.287 19.4147 163.314 19.63 163.333 19.8445C163.587 19.8034 163.844 19.7684 164.104 19.7396C171.16 18.9587 177.643 23.0762 178.583 28.9363C179.211 32.8454 177.213 36.5425 173.719 38.8027C176.976 40.4207 179.345 43.2122 179.886 46.5789C180.826 52.439 175.868 57.8227 168.812 58.6036C167.479 58.7511 166.166 58.7238 164.907 58.5429C165.011 58.9022 165.094 59.2694 165.154 59.6437C166.094 65.5039 161.136 70.8875 154.08 71.6684C151.056 72.0031 148.138 71.4382 145.716 70.2222C144.244 74.0399 140.239 77.0112 135.137 77.5759C130.773 78.0589 126.628 76.668 123.878 74.1499C122.018 77.1782 118.457 79.422 114.092 79.905C108.535 80.52 103.333 78.0966 100.915 74.1765C99.0504 77.1906 95.4973 79.4221 91.1464 79.9036C86.0668 80.4657 81.2846 78.4895 78.6531 75.1521C76.6616 77.5781 73.4836 79.3175 69.7033 79.7358C64.6018 80.3004 59.8003 78.3047 57.1761 74.9411C55.2223 76.6401 52.5849 77.819 49.5627 78.1535C43.367 78.8391 37.6137 75.7484 35.666 71.0174C34.105 71.8642 32.2973 72.4416 30.3259 72.6598C23.2696 73.4407 16.7871 69.3232 15.8468 63.4631C15.6691 62.356 15.702 61.2659 15.9198 60.2206C15.487 60.307 15.0446 60.3757 14.5936 60.4256C7.53734 61.2065 1.05481 57.089 0.114445 51.2289C-0.626212 46.6133 2.29218 42.2933 7.01291 40.285C3.3824 38.7368 0.694401 35.7855 0.114445 32.1714C-0.825918 26.3113 4.13198 20.9277 11.1882 20.1468C12.4969 20.0019 13.7859 20.0256 15.0234 20.1976C14.196 14.3988 19.1281 9.10436 26.1211 8.33043C29.6701 7.93766 33.0739 8.78402 35.7005 10.468C36.8707 6.24368 41.0844 2.86274 46.563 2.25641C51.2707 1.73539 55.7231 3.39479 58.4446 6.29741C60.3927 3.59257 63.7542 1.62452 67.8083 1.17584C72.5162 0.654809 76.9687 2.3143 79.6901 5.21704C81.6382 2.51198 84.9998 0.543741 89.0542 0.0950374C94.5328 -0.511288 99.6655 1.83527 102.127 5.65766Z" fill="#FFC46B"></path> </svg> 