<?xml version="1.0" encoding="UTF-8"?> <svg xmlns="http://www.w3.org/2000/svg" width="78" height="70" viewBox="0 0 78 70" fill="none"> <path d="M44 37V32H34V37H44ZM35.4645 41.5355C37.4171 43.4882 40.5829 43.4882 42.5355 41.5355L74.3553 9.71573C76.308 7.76311 76.308 4.59728 74.3553 2.64466C72.4027 0.692039 69.2369 0.692039 67.2843 2.64466L39 30.9289L10.7157 2.64466C8.76311 0.692039 5.59728 0.692039 3.64466 2.64466C1.69204 4.59728 1.69204 7.76311 3.64466 9.71573L35.4645 41.5355ZM44 63V58H34V63H44ZM35.4645 67.5355C37.4171 69.4882 40.5829 69.4882 42.5355 67.5355L74.3553 35.7157C76.308 33.7631 76.308 30.5973 74.3553 28.6447C72.4027 26.692 69.2369 26.692 67.2843 28.6447L39 56.9289L10.7157 28.6447C8.76311 26.692 5.59728 26.692 3.64466 28.6447C1.69204 30.5973 1.69204 33.7631 3.64466 35.7157L35.4645 67.5355ZM34 37V38H44V37H34ZM34 63V64H44V63H34Z" fill="#FF8867"></path> </svg> 